<svg width="48" height="48" viewBox="0 0 48 48" fill="none" xmlns="http://www.w3.org/2000/svg">
<g clip-path="url(#clip0_10523_182)">
<path d="M7.10254 13.8192H17.8926C18.2809 13.8192 18.5957 13.5044 18.5957 13.1161C18.5957 12.7278 18.2809 12.413 17.8926 12.413H7.10254C6.71423 12.413 6.39941 12.7278 6.39941 13.1161C6.39941 13.5044 6.71423 13.8192 7.10254 13.8192Z" fill="#B2A376"/>
<path d="M7.10254 29.288C6.71423 29.288 6.39941 29.6028 6.39941 29.9911C6.39941 30.3794 6.71423 30.6942 7.10254 30.6942H18.8301C19.2184 30.6942 19.5332 30.3794 19.5332 29.9911C19.5332 29.6028 19.2184 29.288 18.8301 29.288H7.10254Z" fill="#B2A376"/>
<path d="M28.1496 19.4442C28.5379 19.4442 28.8527 19.1294 28.8527 18.7411C28.8527 18.3528 28.5379 18.038 28.1496 18.038H20.4375C20.0492 18.038 19.7344 18.3528 19.7344 18.7411C19.7344 19.1294 20.0492 19.4442 20.4375 19.4442H28.1496Z" fill="#B2A376"/>
<path d="M6.91309 19.4442H17.1564C17.5447 19.4442 17.8595 19.1294 17.8595 18.7411C17.8595 18.3528 17.5447 18.038 17.1564 18.038H6.91309C6.52477 18.038 6.20996 18.3528 6.20996 18.7411C6.20996 19.1294 6.52477 19.4442 6.91309 19.4442Z" fill="#B2A376"/>
<path d="M6.91309 25.0692H23.4094C23.7977 25.0692 24.1126 24.7544 24.1126 24.3661C24.1126 23.9778 23.7977 23.663 23.4094 23.663H6.91309C6.52477 23.663 6.20996 23.9778 6.20996 24.3661C6.20996 24.7544 6.52477 25.0692 6.91309 25.0692Z" fill="#B2A376"/>
<path d="M6.91309 36.3192H20.5969C20.9852 36.3192 21.3001 36.0044 21.3001 35.6161C21.3001 35.2278 20.9852 34.913 20.5969 34.913H6.91309C6.52477 34.913 6.20996 35.2278 6.20996 35.6161C6.20996 36.0044 6.52477 36.3192 6.91309 36.3192Z" fill="#B2A376"/>
<path d="M47.9927 40.3708C47.9461 39.7211 47.648 38.7647 46.4931 37.895L40.3809 33.063L41.7706 31.6741C42.0374 31.8017 42.3367 31.8712 42.6522 31.8713H42.6531C43.3202 31.8713 43.9987 31.5737 44.5148 31.0549C44.5164 31.0533 44.518 31.0516 44.5196 31.0499C45.4818 30.0785 45.5941 28.6143 44.7688 27.783L37.607 20.5832C36.9669 19.9184 35.8713 19.8695 35.0623 20.3076V14.2045C35.0623 13.2657 34.6931 12.3829 34.0227 11.719L23.234 1.03315C22.564 0.369588 21.6731 0.00415039 20.7253 0.00415039H4.49541C2.01666 0.00415039 0 2.00093 0 4.45521V7.06193C0 7.45024 0.314812 7.76506 0.703125 7.76506C1.09144 7.76506 1.40625 7.45024 1.40625 7.06193V4.45521C1.40625 2.77624 2.79206 1.41031 4.49541 1.41031L21.2027 1.46618V10.5023C21.2027 12.2903 22.6682 13.7449 24.4696 13.7449H33.6037L33.6562 21.9531C33.4725 22.5263 33.4981 23.1256 33.7424 23.6216L27.3933 29.9674C26.5556 29.562 25.428 29.7792 24.6315 30.5719C23.7323 31.4364 23.4757 32.951 24.3733 33.8449L31.5557 41.026C32.0986 41.5735 32.9302 41.6985 33.6562 41.4753C33.7159 42.4099 33.4507 43.3452 32.7599 44.0097C32.1688 44.5965 31.3828 44.92 30.5418 44.9103L29.102 44.9C28.7753 44.2513 28.1831 43.7587 27.4687 43.566V42.9708C27.4687 41.5492 26.3122 40.3927 24.8905 40.3927H16.2331C14.8115 40.3927 13.655 41.5492 13.655 42.9708V43.566C12.9799 43.7481 12.4139 44.1979 12.078 44.7942H4.49541C2.79206 44.7942 1.40625 43.4283 1.40625 41.7493V10.3407C1.40625 9.95243 1.09144 9.63762 0.703125 9.63762C0.314812 9.63762 0 9.95243 0 10.3407V41.7493C0 44.2037 2.01666 46.2005 4.49541 46.2005H11.7474V46.8239C11.7474 47.4701 12.2731 47.9958 12.9193 47.9958H16.125C16.5133 47.9958 16.8281 47.681 16.8281 47.2927C16.8281 46.9044 16.5133 46.5896 16.125 46.5896H13.1537V46.0552C13.1537 45.409 13.6793 44.8833 14.3256 44.8833H26.7982C27.4445 44.8833 27.9701 45.409 27.9701 46.0552V46.5896H19.4062C19.0179 46.5896 18.7031 46.9044 18.7031 47.2927C18.7031 47.681 19.0179 47.9958 19.4062 47.9958H28.2045C28.8507 47.9958 29.3764 47.4701 29.3764 46.8239V46.3082C29.4176 46.3084 30.5246 46.3167 30.5654 46.3166C31.7695 46.3166 32.8998 45.8524 33.7507 45.0074C34.5967 44.1676 35.0625 43.052 35.0625 41.8662V40.4997C35.6234 39.7845 35.8263 38.8123 35.4338 38.0077L36.7837 36.6584L41.6061 42.7895C43.3352 44.8908 45.0952 44.6794 46.822 43.1191C47.6448 42.2945 48.0606 41.3184 47.9927 40.3708ZM16.2332 41.7989H24.8906C25.5368 41.7989 26.0625 42.3246 26.0625 42.9708V43.4771H15.0613V42.9708C15.0613 42.3246 15.587 41.7989 16.2332 41.7989ZM35.3393 21.8278C35.707 21.4893 36.1959 21.2503 36.6097 21.5744L43.7715 28.7742C44.0452 29.0499 43.9268 29.6519 43.5184 30.0626C43.1402 30.4189 42.5841 30.6672 42.1909 30.2597L39.5381 27.5929C39.2643 27.3177 38.8191 27.3164 38.5438 27.5903C38.2685 27.8641 38.2673 28.3093 38.5412 28.5846L40.7006 30.7556C38.8393 32.614 36.3741 35.0796 34.5133 36.9398L28.4609 30.8886L34.6649 24.6878L36.2084 26.2395C36.4822 26.5149 36.9275 26.5161 37.2027 26.2421C37.4781 25.9683 37.4792 25.5231 37.2053 25.2478L35.1636 23.1953C34.7902 22.9014 34.8997 22.2827 35.3393 21.8278ZM22.6089 10.5024V2.39328L32.6503 12.3387H24.4696C23.4436 12.3387 22.6089 11.515 22.6089 10.5024ZM32.5495 40.0309L25.3672 32.8498C25.0444 32.4354 25.2804 31.9445 25.6168 31.5752C26.0633 31.1375 26.68 31.0223 26.9692 31.3855L34.083 38.4978C34.407 38.9134 34.1678 39.4081 33.8292 39.7766C33.4207 40.1848 32.8226 40.3035 32.5495 40.0309ZM45.8264 42.1262C44.7617 43.1907 43.6101 43.1617 42.7167 41.927L37.7855 35.6575L39.3796 34.0641L45.6277 39.0036C46.8607 39.9 46.8891 41.0587 45.8264 42.1262Z" fill="#B2A376"/>
</g>
<defs>
<clipPath id="clip0_10523_182">
<rect width="48" height="48" fill="white"/>
</clipPath>
</defs>
</svg>
