<svg width="48" height="48" viewBox="0 0 48 48" fill="none" xmlns="http://www.w3.org/2000/svg">
<path d="M23.9995 14.9896C25.1926 14.9883 26.3364 14.5138 27.1801 13.6701C28.0237 12.8265 28.4982 11.6827 28.4995 10.4896C28.2884 4.53378 19.7097 4.5353 19.4995 10.4897C19.5008 11.6827 19.9754 12.8266 20.819 13.6702C21.6626 14.5138 22.8064 14.9883 23.9995 14.9896ZM23.9995 7.4896C24.7904 7.4969 25.5464 7.8162 26.103 8.37802C26.6597 8.93984 26.972 9.69875 26.9719 10.4896C26.9719 11.2805 26.6596 12.0394 26.103 12.6012C25.5463 13.163 24.7903 13.4823 23.9994 13.4896C23.2086 13.4823 22.4526 13.163 21.8959 12.6012C21.3393 12.0394 21.027 11.2805 21.027 10.4896C21.027 9.69868 21.3393 8.93978 21.896 8.37797C22.4527 7.81616 23.2087 7.49689 23.9995 7.4896Z" fill="#B2A376"/>
<path d="M42.7495 18.7395V17.9647C43.6216 17.906 44.4504 17.5627 45.1086 16.9875C45.7668 16.4123 46.2181 15.637 46.3931 14.7806C46.5682 13.9242 46.4573 13.034 46.0776 12.2466C45.6979 11.4593 45.0703 10.8183 44.2911 10.4221L28.5972 2.57495C27.1657 1.8745 25.5931 1.51038 23.9995 1.51038C22.4058 1.51038 20.8332 1.8745 19.4017 2.57495L3.70809 10.4221C2.92886 10.8183 2.30118 11.4592 1.9214 12.2466C1.54162 13.0339 1.43073 13.9241 1.60575 14.7806C1.78077 15.637 2.23203 16.4124 2.89025 16.9876C3.54847 17.5628 4.37729 17.9061 5.24946 17.9648V18.7395C5.25089 19.2033 5.39584 19.6553 5.66441 20.0334C5.93299 20.4115 6.31202 20.6972 6.74946 20.8513V38.2395H5.99946C5.40293 38.2402 4.83101 38.4774 4.40919 38.8992C3.98738 39.321 3.75012 39.893 3.74946 40.4895V41.2774C3.09832 41.3773 2.50865 41.7187 2.09783 42.2337C1.68701 42.7486 1.48515 43.3994 1.53244 44.0565C1.57972 44.7136 1.87268 45.3287 2.35301 45.7796C2.83333 46.2304 3.4658 46.4839 4.12455 46.4895H43.8745C44.5331 46.4837 45.1654 46.2301 45.6456 45.7793C46.1258 45.3285 46.4186 44.7134 46.4659 44.0564C46.5132 43.3994 46.3114 42.7488 45.9007 42.2338C45.49 41.7189 44.9005 41.3774 44.2495 41.2774V40.4895C44.2488 39.893 44.0115 39.321 43.5897 38.8992C43.1679 38.4774 42.596 38.2402 41.9995 38.2395H41.2495V20.8513C41.6869 20.6972 42.0659 20.4115 42.3345 20.0334C42.6031 19.6553 42.748 19.2033 42.7495 18.7395ZM41.2495 18.7395C41.2493 18.9384 41.1702 19.129 41.0296 19.2696C40.889 19.4102 40.6983 19.4893 40.4995 19.4895H35.9995C35.8006 19.4893 35.61 19.4102 35.4694 19.2696C35.3287 19.129 35.2497 18.9384 35.2495 18.7395V17.9895H41.2495V18.7395ZM34.4995 38.2395C33.9029 38.2402 33.331 38.4774 32.9092 38.8992C32.4874 39.321 32.2501 39.893 32.2495 40.4895V41.2395H29.9995V40.4895C29.9988 39.893 29.7615 39.321 29.3397 38.8992C28.9179 38.4774 28.346 38.2402 27.7495 38.2395H26.9995V20.8513C27.4369 20.6972 27.8159 20.4115 28.0845 20.0334C28.3531 19.6553 28.498 19.2033 28.4995 18.7395V17.9895H33.7495V18.7395C33.7509 19.2033 33.8958 19.6553 34.1644 20.0334C34.433 20.4115 34.812 20.6972 35.2495 20.8513V38.2395H34.4995ZM15.7495 41.2395V40.4895C15.7488 39.893 15.5116 39.321 15.0897 38.8992C14.6679 38.4774 14.096 38.2402 13.4995 38.2395H12.7495V20.8513C13.1869 20.6972 13.5659 20.4115 13.8345 20.0334C14.1031 19.6553 14.248 19.2033 14.2495 18.7395V17.9895H19.4995V18.7395C19.5009 19.2033 19.6458 19.6553 19.9144 20.0334C20.183 20.4115 20.562 20.6972 20.9995 20.8513V38.2395H20.2495C19.6529 38.2402 19.081 38.4774 18.6592 38.8992C18.2374 39.321 18.0001 39.893 17.9995 40.4895V41.2395H15.7495ZM6.74946 18.7395V17.9895H12.7495V18.7395C12.7493 18.9384 12.6702 19.129 12.5296 19.2696C12.389 19.4102 12.1983 19.4893 11.9995 19.4895H7.49946C7.30061 19.4893 7.10996 19.4102 6.96935 19.2696C6.82874 19.129 6.74966 18.9384 6.74946 18.7395ZM22.4995 20.9895H25.4995V38.2395H22.4995V20.9895ZM26.2495 19.4895H21.7495C21.5506 19.4893 21.36 19.4102 21.2194 19.2696C21.0787 19.129 20.9997 18.9384 20.9995 18.7395V17.9895H26.9995V18.7395C26.9993 18.9384 26.9202 19.129 26.7796 19.2696C26.639 19.4102 26.4483 19.4893 26.2495 19.4895ZM19.4995 40.4895C19.4997 40.2906 19.5787 40.1 19.7194 39.9594C19.86 39.8188 20.0506 39.7397 20.2495 39.7395H27.7495C27.9483 39.7397 28.139 39.8188 28.2796 39.9594C28.4202 40.1 28.4993 40.2906 28.4995 40.4895V41.2395H19.4995V40.4895ZM2.99946 13.9949C2.99778 13.5313 3.12612 13.0765 3.3699 12.6821C3.61369 12.2878 3.96315 11.9697 4.37862 11.7639L20.0726 3.91675C21.2926 3.30951 22.6367 2.99347 23.9995 2.99347C25.3622 2.99347 26.7064 3.30951 27.9263 3.91675L43.6207 11.7639C44.1173 12.0195 44.5142 12.434 44.7479 12.9412C44.9817 13.4485 45.0389 14.0195 44.9106 14.5631C44.7822 15.1067 44.4756 15.5917 44.0396 15.9408C43.6036 16.2899 43.0633 16.4831 42.5048 16.4895H5.49412C4.83274 16.4887 4.19866 16.2257 3.73098 15.758C3.26331 15.2903 3.00023 14.6563 2.99946 13.9949ZM8.24946 20.9895H11.2495V38.2395H8.24946V20.9895ZM5.24946 40.4895C5.24966 40.2906 5.32874 40.1 5.46935 39.9594C5.60996 39.8188 5.80061 39.7397 5.99946 39.7395H13.4995C13.6983 39.7397 13.889 39.8188 14.0296 39.9594C14.1702 40.1 14.2493 40.2906 14.2495 40.4895V41.2395H5.24946V40.4895ZM44.9995 43.8645C44.9991 44.1628 44.8805 44.4487 44.6696 44.6596C44.4587 44.8705 44.1727 44.9892 43.8745 44.9895H4.12446C3.82903 44.985 3.5472 44.8646 3.33986 44.6541C3.13252 44.4436 3.0163 44.1599 3.0163 43.8645C3.01631 43.569 3.13255 43.2854 3.3399 43.0749C3.54726 42.8644 3.82909 42.7439 4.12452 42.7395H43.8745C44.1727 42.7398 44.4587 42.8585 44.6696 43.0694C44.8805 43.2803 44.9991 43.5662 44.9995 43.8645ZM42.7495 40.4895V41.2395H33.7495V40.4895C33.7497 40.2906 33.8287 40.1 33.9694 39.9594C34.11 39.8188 34.3006 39.7397 34.4995 39.7395H41.9995C42.1983 39.7397 42.389 39.8188 42.5296 39.9594C42.6702 40.1 42.7493 40.2906 42.7495 40.4895ZM36.7495 38.2395V20.9895H39.7495V38.2395H36.7495Z" fill="#B2A376"/>
</svg>
