<svg width="48" height="48" viewBox="0 0 48 48" fill="none" xmlns="http://www.w3.org/2000/svg">
<path d="M31.1626 31.0725C33.2064 31.0725 34.8676 29.4112 34.8676 27.3675V19.56C34.8676 17.5162 33.2064 15.855 31.1626 15.855H16.8564C14.8126 15.855 13.1514 17.5162 13.1514 19.56V33.4987C13.1514 33.7837 13.3126 34.0425 13.5676 34.17C13.6726 34.2225 13.7889 34.2487 13.9014 34.2487C14.0626 34.2487 14.2239 34.1962 14.3551 34.095L18.3339 31.0725H31.1626ZM17.6251 29.7262L14.6514 31.9875V19.56C14.6514 18.345 15.6414 17.355 16.8564 17.355H31.1626C32.3776 17.355 33.3676 18.345 33.3676 19.56V27.3675C33.3676 28.5825 32.3776 29.5725 31.1626 29.5725H18.0789C17.9139 29.5725 17.7564 29.6287 17.6251 29.7262Z" fill="#B2A376"/>
<path d="M47.775 22.5413C47.505 20.5688 45.7987 19.0837 43.8037 19.0837H43.1963V15.1763C43.1963 8.24625 37.905 2.5725 31.0275 1.96875C30.8737 0.96375 30.0038 0.1875 28.9575 0.1875H19.0388C17.9925 0.1875 17.1262 0.95625 16.9688 1.9575C10.0912 2.4975 4.8 8.11875 4.8 15.0488V19.0837H4.1925C2.20125 19.0837 0.495 20.5687 0.225 22.5375C0.19875 22.71 0.1875 22.8937 0.1875 23.0887V32.415C0.1875 32.6138 0.19875 32.7938 0.225 32.9625C0.495 34.935 2.20125 36.42 4.19625 36.42H7.3275C8.55375 36.42 9.555 35.4225 9.555 34.1963V21.3038C9.555 20.0775 8.5575 19.08 7.3275 19.08H6.3V15.0488C6.3 8.95875 10.9162 4.0125 16.9462 3.46875C16.9987 4.57875 17.9175 5.4675 19.0388 5.4675H28.9575C30.075 5.4675 30.99 4.58625 31.05 3.48375C37.08 4.09125 41.7 9.08625 41.7 15.18V19.0837H40.6763C39.45 19.0837 38.4487 20.0812 38.4487 21.3075V34.2C38.4487 35.4262 39.4463 36.4237 40.6763 36.4237H42.3675C42.2438 39.6112 39.6187 42.1725 36.4012 42.1725H29.6025C29.265 40.8337 28.0575 39.84 26.6175 39.84H21.3825C19.6838 39.84 18.3 41.2237 18.3 42.9225V43.1625C18.3 44.8612 19.6838 46.245 21.3825 46.245H26.6175C28.1438 46.245 29.4075 45.1313 29.6512 43.6763H36.4012C40.4475 43.6763 43.7475 40.4437 43.8675 36.4275C45.8325 36.3975 47.505 34.9238 47.775 32.9775C47.8013 32.805 47.8125 32.6213 47.8125 32.4263V23.0887C47.8125 22.89 47.8013 22.71 47.775 22.5413ZM8.05125 21.3038V34.2C8.05125 34.5975 7.725 34.9237 7.32375 34.9237H4.1925C2.9475 34.9237 1.87875 33.9937 1.71 32.7562C1.695 32.6512 1.6875 32.5425 1.6875 32.415V23.0887C1.6875 22.965 1.695 22.8525 1.71 22.7438C1.87875 21.51 2.9475 20.58 4.1925 20.58H7.32375C7.725 20.5838 8.05125 20.9063 8.05125 21.3038ZM29.5575 3.3675C29.5575 3.6975 29.2913 3.96375 28.9613 3.96375H19.0388C18.7088 3.96375 18.4425 3.6975 18.4425 3.3675V2.28375C18.4425 1.95375 18.7088 1.6875 19.0388 1.6875H28.9575C29.2875 1.6875 29.5537 1.95375 29.5537 2.28375V3.3675H29.5575ZM28.2 43.155C28.2 44.025 27.4913 44.7375 26.6175 44.7375H21.3825C20.5125 44.7375 19.8 44.0288 19.8 43.155V42.915C19.8 42.045 20.5088 41.3325 21.3825 41.3325H26.6175C27.4875 41.3325 28.2 42.0413 28.2 42.915V43.155ZM46.3125 32.415C46.3125 32.5388 46.305 32.6513 46.29 32.76C46.1213 33.9938 45.0525 34.9237 43.8075 34.9237H40.6763C40.275 34.9237 39.9487 34.6012 39.9487 34.2V21.3038C39.9487 20.9063 40.275 20.58 40.6763 20.58H43.8075C45.0525 20.58 46.1213 21.51 46.29 22.7475C46.305 22.8525 46.3125 22.9612 46.3125 23.0887V32.415Z" fill="#B2A376"/>
<path d="M28.9689 20.3063H19.0464C18.6339 20.3063 18.2964 20.6438 18.2964 21.0563C18.2964 21.4688 18.6339 21.8063 19.0464 21.8063H28.9689C29.3814 21.8063 29.7189 21.4688 29.7189 21.0563C29.7189 20.6438 29.3814 20.3063 28.9689 20.3063Z" fill="#B2A376"/>
<path d="M28.9689 24.6787H19.0464C18.6339 24.6787 18.2964 25.0162 18.2964 25.4287C18.2964 25.8412 18.6339 26.1787 19.0464 26.1787H28.9689C29.3814 26.1787 29.7189 25.8412 29.7189 25.4287C29.7189 25.0162 29.3814 24.6787 28.9689 24.6787Z" fill="#B2A376"/>
</svg>
