<svg width="48" height="48" viewBox="0 0 48 48" fill="none" xmlns="http://www.w3.org/2000/svg">
<g clip-path="url(#clip0_10523_206)">
<path d="M44.3814 24.0583C43.7207 23.436 42.756 24.4601 43.4164 25.0823C45.4946 27.0404 46.593 29.359 46.593 31.7874C46.593 34.6772 45.0149 37.4329 42.1494 39.5468C41.9696 39.6795 41.8635 39.8896 41.8635 40.1129V45.6022L38.3341 42.0729C38.1429 41.8816 37.859 41.8171 37.604 41.9065C35.3266 42.7047 32.8732 43.1095 30.312 43.1095C21.3347 43.1095 14.0312 38.0305 14.0312 31.7875C14.0312 28.2291 16.4421 25.2804 19.3172 23.4456C22.5623 21.3746 26.4902 20.4656 30.3121 20.4656C34.0696 20.4656 37.7379 21.3821 40.6413 23.0463C41.4285 23.4978 42.1283 22.2768 41.341 21.8256C39.1558 20.573 36.6566 19.7294 33.9803 19.3282V2.1917C33.9803 0.98552 32.9989 0.00427247 31.7929 0.00427247H2.18743C0.981341 0.00417867 0 0.98552 0 2.1917V5.53841C0 6.44574 1.40701 6.44574 1.40701 5.53841V2.1917C1.40701 1.76134 1.75707 1.41128 2.18743 1.41128H31.7927C32.223 1.41128 32.5731 1.76134 32.5731 2.1917V19.1595C31.8298 19.0924 31.0752 19.0585 30.3119 19.0585C25.6309 19.0585 21.2213 20.3553 17.8956 22.71C17.8855 22.7171 17.8758 22.7246 17.8656 22.7318H11.8227C11.6361 22.7318 11.4573 22.8059 11.3252 22.9379L5.33144 28.9317V23.4353C5.33144 23.0468 5.01655 22.7318 4.62793 22.7318H2.18743C1.75707 22.7318 1.40701 22.3817 1.40701 21.9514V9.29043C1.40701 8.3831 0 8.3831 0 9.29043V21.9514C0 23.1575 0.981341 24.1388 2.18743 24.1388H3.92452V30.6302C3.92452 31.2412 4.69087 31.5622 5.12554 31.1276L12.1142 24.1388H16.1548C13.863 26.3277 12.6241 28.9838 12.6241 31.7875C12.6241 35.2343 14.4963 38.458 17.8957 40.8649C21.2214 43.2197 25.631 44.5165 30.312 44.5165C32.8756 44.5165 35.3412 44.1333 37.6484 43.3771L42.0696 47.7982C42.4974 48.2258 43.2706 47.9134 43.2706 47.3008V40.4634C46.3239 38.1045 48.0001 35.0355 48.0001 31.7876C48 28.9616 46.7487 26.289 44.3814 24.0583Z" fill="#B2A376"/>
<path d="M27.2166 34.6635H38.754C39.6614 34.6635 39.6614 33.2565 38.754 33.2565H27.2166C26.3093 33.2565 26.3093 34.6635 27.2166 34.6635Z" fill="#B2A376"/>
<path d="M34.2047 29.9265C34.2047 29.538 33.8898 29.223 33.5012 29.223H21.87C20.9626 29.223 20.9626 30.63 21.87 30.63H33.5012C33.8898 30.63 34.2047 30.315 34.2047 29.9265Z" fill="#B2A376"/>
<path d="M38.754 29.223H36.409C35.5017 29.223 35.5017 30.63 36.409 30.63H38.754C39.6614 30.63 39.6614 29.223 38.754 29.223Z" fill="#B2A376"/>
<path d="M8.53597 15.0592H20.1672C21.0746 15.0592 21.0746 13.6522 20.1672 13.6522H8.53597C7.62864 13.6522 7.62864 15.0592 8.53597 15.0592Z" fill="#B2A376"/>
<path d="M25.4202 11.0258C26.3275 11.0258 26.3275 9.61877 25.4202 9.61877H13.7889C12.8816 9.61877 12.8816 11.0258 13.7889 11.0258H25.4202Z" fill="#B2A376"/>
<path d="M8.53597 11.0258H10.881C11.7883 11.0258 11.7883 9.61877 10.881 9.61877H8.53597C7.62864 9.61877 7.62864 11.0258 8.53597 11.0258Z" fill="#B2A376"/>
<path d="M36.5528 7.17866C38.7348 7.53013 40.8671 8.87354 42.403 10.8645C43.5494 12.3507 44.2706 14.0619 44.4813 15.7351L43.3596 14.7368C42.6819 14.1336 41.7465 15.1845 42.4242 15.7878L44.6504 17.7693C44.9102 18.1391 45.4761 18.1653 45.7756 17.829L47.8011 15.5535C48.4043 14.8757 47.3536 13.9404 46.7501 14.6179L45.8806 15.5947C45.643 13.6619 44.8228 11.6978 43.517 10.0051C41.7648 7.73377 39.3081 6.19722 36.7765 5.78947C35.8806 5.64483 35.657 7.03439 36.5528 7.17866Z" fill="#B2A376"/>
<path d="M13.4317 45.366C10.2513 44.8538 7.58183 42.3969 6.28297 39.5236C5.89408 38.6634 5.6213 37.7471 5.50321 36.8095L6.62488 37.8078C7.30268 38.4111 8.23806 37.3601 7.56035 36.7569L5.33409 34.7754C5.07407 34.4052 4.50911 34.3787 4.20895 34.7157L2.18342 36.9912C1.58235 37.6666 2.62925 38.6063 3.23446 37.9268L4.10389 36.9499C4.67673 41.6101 8.49592 45.9963 13.208 46.7552C14.1042 46.8991 14.327 45.5102 13.4317 45.366Z" fill="#B2A376"/>
</g>
<defs>
<clipPath id="clip0_10523_206">
<rect width="48" height="48" fill="white"/>
</clipPath>
</defs>
</svg>
