<svg width="46" height="38" viewBox="0 0 46 38" fill="none" xmlns="http://www.w3.org/2000/svg">
<path d="M43.4313 34.7276H41.1221V3.27355H43.4313C44.3349 3.27355 45.0678 2.54067 45.0678 1.63706C45.0678 0.733443 44.3349 0.000566929 43.4313 0.000566929H28.9015C27.9979 0.000566929 27.265 0.733443 27.265 1.63706C27.265 2.54067 27.9979 3.27355 28.9015 3.27355H31.2107V22.0725L14.1249 10.0986C13.8412 9.47915 13.7788 8.78712 13.9507 8.11835C14.1498 7.34633 14.6371 6.69741 15.3229 6.29183C16.7387 5.45572 18.5743 5.92767 19.4115 7.34406C19.9652 8.28058 19.9646 9.44456 19.411 10.3839C18.9515 11.1633 19.2102 12.1656 19.9884 12.6256C20.7678 13.0851 21.7701 12.8253 22.2301 12.0476C23.3896 10.081 23.3896 7.6413 22.2296 5.67864C20.5131 2.77324 16.8 1.77206 13.8566 3.36998V1.63649C13.8566 0.732876 13.1237 0 12.2201 0H1.63649C0.73288 0 0 0.732876 0 1.63649C0 2.5401 0.73288 3.27298 1.63649 3.27298H3.94573V34.727H1.63649C0.73288 34.727 0 35.4599 0 36.3635C0 37.2671 0.73288 38 1.63649 38H16.1663C17.07 38 17.8028 37.2671 17.8028 36.3635C17.8028 35.4599 17.07 34.727 16.1663 34.727H13.8571V13.9059L30.6026 25.6415C31.222 26.8447 31.3763 28.2162 31.0366 29.5379C30.669 30.9674 29.7659 32.1682 28.4948 32.9198C27.2236 33.6708 25.7363 33.8835 24.3074 33.5143C22.8779 33.1467 21.6765 32.2436 20.9255 30.9725C19.7411 28.9684 19.9442 26.4187 21.4303 24.6296C22.0084 23.9341 21.9131 22.9018 21.2176 22.3249C20.5216 21.7474 19.4909 21.8439 18.9129 22.5376C16.5453 25.388 16.2214 29.4466 18.1075 32.6379C19.3026 34.6612 21.2154 36.0986 23.4906 36.6846C24.2217 36.8723 24.9625 36.9648 25.6977 36.9648C27.2525 36.9648 28.7852 36.549 30.159 35.7373C30.5328 35.5166 30.8789 35.2636 31.2107 34.9965V36.3635C31.2107 37.2671 31.9436 38 32.8472 38H43.4313C44.3349 38 45.0678 37.2671 45.0678 36.3635C45.0678 35.4605 44.3349 34.7276 43.4313 34.7276ZM7.21814 34.7276V3.27355H10.583V34.7276H7.21814ZM37.8485 3.27355V34.7276H34.4837V3.27355H37.8485Z" fill="#111E27"/>
</svg>
