<svg width="45" height="44" viewBox="0 0 45 44" fill="none" xmlns="http://www.w3.org/2000/svg">
<path d="M44.0114 22.0017L32.4724 10.4663L33.143 8.51463H30.5206L22.0059 0L13.4909 8.51485H10.8682L11.539 10.4665L0 22.0017L22.0059 44L44.0114 22.0017ZM14.6429 18.11C14.429 18.11 14.2556 17.9363 14.2556 17.7227C14.2556 17.5088 14.4292 17.3349 14.6429 17.3349H29.3685C29.5824 17.3349 29.7559 17.5088 29.7559 17.7227C29.7559 17.9366 29.5822 18.11 29.3685 18.11H14.6429ZM17.6522 19.5407V33.7895L16.6997 32.8371V19.5407H17.6522ZM19.0831 19.5407H20.1279V36.2645L19.0831 35.2199V19.5407ZM21.5587 19.5407H22.4529V37.6951L22.0057 38.1421L21.5585 37.6951V19.5407H21.5587ZM23.8838 19.5407H24.9283V35.2203L23.8838 36.2647V19.5407ZM26.3592 19.5407H27.3117V32.8373L26.3592 33.7897V19.5407ZM28.7426 19.5407H29.3685C30.371 19.5407 31.1867 18.725 31.1867 17.7225C31.1867 16.7196 30.371 15.9039 29.3685 15.9039H14.6429C13.6404 15.9039 12.8247 16.7196 12.8247 17.7225C12.8247 18.725 13.6404 19.5407 14.6429 19.5407H15.2689V31.4065L5.9656 22.1053L13.5412 14.5327H30.47L38.0456 22.1053L28.7424 31.4067L28.7426 19.5407ZM28.4526 8.47C26.9828 8.30585 25.6209 7.65748 24.56 6.59661L22.0057 4.04208L19.554 6.49402L19.4514 6.59661C18.3905 7.65748 17.0286 8.30585 15.5589 8.47L22.0059 2.02315L28.4526 8.47ZM14.82 9.94548C16.9518 9.94548 18.9555 9.11541 20.463 7.60819L20.5656 7.50539L22.0059 6.06523L23.4459 7.50539L23.5487 7.60819C25.0559 9.11541 27.0598 9.94548 29.1917 9.94548H31.1389L30.0539 13.1021H13.9586L12.8736 9.94548H14.82ZM12.0564 11.972L12.5736 13.4771L3.9416 22.1056L22.0057 40.1654L40.0696 22.1056L31.4376 13.4773L31.9548 11.9722L41.9874 22.0019L22.0057 41.9768L2.02379 22.0019L12.0564 11.972Z" fill="#111E27"/>
</svg>
