<svg width="40" height="40" viewBox="0 0 40 40" fill="none" xmlns="http://www.w3.org/2000/svg">
<path d="M30.5921 18.6523H9.40408C7.63266 18.6523 6.19141 20.0936 6.19141 21.865V22.0244C6.19141 23.7958 7.63266 25.2371 9.40408 25.2371C11.1755 25.2371 12.6168 23.7958 12.6168 22.0244V21.9448H10.9175V22.0244C10.9175 22.8591 10.2388 23.5378 9.40408 23.5378C8.56937 23.5378 7.89065 22.8591 7.89065 22.0244V21.865C7.89065 21.0303 8.56937 20.3516 9.40408 20.3516H30.5921C31.4268 20.3516 32.1055 21.0303 32.1055 21.865V22.0244C32.1055 22.8591 31.4268 23.5378 30.5921 23.5378C29.7574 23.5378 29.0787 22.8591 29.0787 22.0244V21.9448H27.3794V22.0244C27.3794 23.7958 28.8207 25.2371 30.5921 25.2371C32.3635 25.2371 33.8048 23.7958 33.8048 22.0244V21.865C33.8048 20.0936 32.3635 18.6523 30.5921 18.6523Z" fill="#111E27"/>
<path d="M25.9497 22.0508H14.0547V23.75H25.9497V22.0508Z" fill="#111E27"/>
<path d="M30.442 15.4666H9.55469V17.1658H30.442V15.4666Z" fill="#111E27"/>
<path d="M20.0003 0C8.97201 0 0 8.97202 0 19.9999C0 28.9577 5.91975 36.5588 14.0528 39.0969V39.1503H14.2386C16.0642 39.7005 17.9976 40 20.0003 40C22.0028 40 23.9362 39.7007 25.7618 39.1503H25.9478V39.0969C34.0805 36.5588 40.0002 28.9577 40.0002 20.0001C40.0002 8.97202 31.0282 0 20.0003 0ZM35.7886 10.7627L26.1025 12.1146C26.0976 12.1138 26.0763 12.0994 26.0659 12.0628C25.8966 11.477 25.6416 10.9305 25.3169 10.4243L31.126 5.48399C32.9998 6.92335 34.5867 8.71614 35.7886 10.7627ZM24.2225 9.12418C23.8198 8.7608 23.3724 8.45138 22.8921 8.20419L24.9493 2.38475C26.638 2.85988 28.2284 3.57014 29.6826 4.48082L24.2225 9.12418ZM23.2826 1.99999L21.2881 7.64229C20.4405 7.46726 19.5557 7.46769 18.7119 7.64208L16.7176 1.99999C17.7834 1.80613 18.8795 1.69925 20.0003 1.69925C21.1212 1.69925 22.217 1.80613 23.2826 1.99999ZM15.7775 9.12418L10.3176 4.48103C11.7718 3.57056 13.362 2.8603 15.0509 2.38496L17.1081 8.20461C16.6272 8.45202 16.1796 8.76143 15.7775 9.12418ZM8.87402 5.48399L14.6833 10.4243C14.3582 10.9312 14.1032 11.4774 13.9341 12.063C13.9237 12.0992 13.9026 12.1136 13.8943 12.1144L4.21162 10.7627C5.41351 8.71636 7.00038 6.92335 8.87402 5.48399ZM25.9478 37.3029V25.184H24.2485V37.7973C23.7139 37.9249 23.1713 38.0305 22.6198 38.1101V25.184H20.9205V38.277C20.6156 38.2923 20.3089 38.3003 20.0003 38.3003C19.6915 38.3003 19.3847 38.2921 19.0797 38.277V25.184H17.3804V38.1101C16.8291 38.0307 16.2865 37.9249 15.7521 37.7975V25.1842H14.0528V37.3031C6.8734 34.8284 1.69925 28.009 1.69925 20.0001C1.69925 17.2744 2.30263 14.6882 3.37607 12.3616L13.6598 13.7974C13.7407 13.809 13.8209 13.8143 13.9005 13.8143C14.6651 13.8143 15.3447 13.3053 15.5669 12.5341C15.7478 11.9068 16.0547 11.336 16.482 10.834C17.0077 10.2105 17.6901 9.73836 18.4598 9.46789C19.4388 9.11699 20.5565 9.1153 21.5446 9.46958C22.3097 9.73836 22.992 10.2105 23.5203 10.837C23.9451 11.336 24.2521 11.9068 24.4331 12.5339C24.6784 13.3851 25.4782 13.9172 26.3406 13.7976L36.6239 12.3618C37.6974 14.6884 38.3007 17.2744 38.3007 20.0003C38.301 28.009 33.127 34.8282 25.9478 37.3029Z" fill="#111E27"/>
</svg>
