<svg width="42" height="42" viewBox="0 0 42 42" fill="none" xmlns="http://www.w3.org/2000/svg">
<path d="M2.28711 3.30493H39.395C39.395 4.57799 38.3629 5.61007 37.0899 5.61007H4.59205C3.31919 5.61007 2.28711 4.57799 2.28711 3.30493Z" stroke="#111E27" stroke-miterlimit="10" stroke-linecap="round" stroke-linejoin="round"/>
<path d="M28.588 3.30514H13.1016V2.48909C13.1016 1.6666 13.7682 1 14.5907 1H27.0987C27.9212 1 28.5878 1.6666 28.5878 2.48909V3.30514H28.588Z" stroke="#111E27" stroke-miterlimit="10" stroke-linecap="round" stroke-linejoin="round"/>
<path d="M23.6693 5.61035V39.59L20.8392 41.0001L20.7165 40.9397L17.7637 39.4673V5.61035H23.6693Z" stroke="#111E27" stroke-miterlimit="10" stroke-linecap="round" stroke-linejoin="round"/>
<path d="M20.7188 40.9397V5.61035" stroke="#111E27" stroke-miterlimit="10" stroke-linecap="round" stroke-linejoin="round"/>
<path d="M7.04883 26.5876V34.1266L17.7719 39.4671L20.7248 40.9395L20.8475 40.9998L23.6776 39.5898L34.6441 34.1266V26.5876" stroke="#111E27" stroke-miterlimit="10" stroke-linecap="round" stroke-linejoin="round"/>
<path d="M13.109 20.7783C13.0707 21.6855 12.8334 22.5424 12.4391 23.3047C11.4334 25.2538 9.40184 26.5874 7.05445 26.5874C4.70909 26.5874 2.6775 25.2538 1.67177 23.3047C1.27752 22.5424 1.04017 21.6855 1.00195 20.7783H13.109Z" stroke="#111E27" stroke-miterlimit="10" stroke-linecap="round" stroke-linejoin="round"/>
<path d="M12.4432 23.3049C11.4374 25.254 9.40584 26.5876 7.05846 26.5876C4.7131 26.5876 2.68151 25.254 1.67578 23.3049H12.4432Z" fill="#111E27" stroke="#111E27" stroke-miterlimit="10" stroke-linecap="round" stroke-linejoin="round"/>
<path d="M1 20.7789L7.05391 6.79443L13.108 20.7789" stroke="#111E27" stroke-miterlimit="10" stroke-linecap="round" stroke-linejoin="round"/>
<path d="M7.05174 7.97921C7.70595 7.97921 8.23629 7.44887 8.23629 6.79466C8.23629 6.14045 7.70595 5.61011 7.05174 5.61011C6.39753 5.61011 5.86719 6.14045 5.86719 6.79466C5.86719 7.44887 6.39753 7.97921 7.05174 7.97921Z" fill="#111E27" stroke="#111E27" stroke-miterlimit="10" stroke-linecap="round" stroke-linejoin="round"/>
<path d="M40.7105 20.7795C40.6723 21.6867 40.435 22.5436 40.0407 23.3059C39.035 25.2551 37.0034 26.5887 34.656 26.5887C32.3106 26.5887 30.2791 25.2551 29.2733 23.3059C28.8791 22.5436 28.6417 21.6867 28.6035 20.7795H40.7105Z" stroke="#111E27" stroke-miterlimit="10" stroke-linecap="round" stroke-linejoin="round"/>
<path d="M40.0447 23.3064C39.039 25.2555 37.0074 26.5891 34.66 26.5891C32.3147 26.5891 30.2831 25.2555 29.2773 23.3064H40.0447Z" fill="#111E27" stroke="#111E27" stroke-miterlimit="10" stroke-linecap="round" stroke-linejoin="round"/>
<path d="M28.6016 20.7802L34.6557 6.79565L40.7096 20.7802" stroke="#111E27" stroke-miterlimit="10" stroke-linecap="round" stroke-linejoin="round"/>
<path d="M34.6514 7.97946C35.3056 7.97946 35.8359 7.44911 35.8359 6.7949C35.8359 6.14069 35.3056 5.61035 34.6514 5.61035C33.9971 5.61035 33.4668 6.14069 33.4668 6.7949C33.4668 7.44911 33.9971 7.97946 34.6514 7.97946Z" fill="#111E27" stroke="#111E27" stroke-miterlimit="10" stroke-linecap="round" stroke-linejoin="round"/>
</svg>
