<svg width="41" height="40" viewBox="0 0 41 40" fill="none" xmlns="http://www.w3.org/2000/svg">
<g clip-path="url(#clip0_546_24623)">
<path d="M35.9543 4.5459H5.04573C3.03745 4.5459 1.40942 6.17393 1.40942 8.1822V31.8182C1.40942 33.8265 3.03745 35.4545 5.04573 35.4545H35.9543C37.9626 35.4545 39.5906 33.8265 39.5906 31.8182V8.1822C39.5906 6.17393 37.9626 4.5459 35.9543 4.5459Z" fill="#EFF3F9"/>
<path d="M5.04573 30V4.5459C3.03758 4.5459 1.40942 6.17405 1.40942 8.1822V31.8182C1.40942 33.8263 3.03758 35.4545 5.04573 35.4545H35.9543C37.9625 35.4545 39.5906 33.8263 39.5906 31.8182H6.86388C5.85935 31.8182 5.04573 31.0046 5.04573 30Z" fill="#CFE0F3"/>
<path d="M5.04573 4.5459H35.9543C37.9625 4.5459 39.5906 6.17405 39.5906 8.1822V11.8185H1.40942V8.1822C1.40942 6.17405 3.03758 4.5459 5.04573 4.5459Z" fill="#47CAF0"/>
<path d="M5.04573 4.5459C3.03758 4.5459 1.40942 6.17405 1.40942 8.1822V11.8185H5.04573V4.5459Z" fill="#20AEE1"/>
<path d="M13.8696 18.4477C13.5142 18.0923 12.9396 18.0923 12.5842 18.4477L8.0388 22.9931C7.68335 23.3486 7.68335 23.9231 8.0388 24.2786L12.5842 28.8239C12.7615 29.0012 12.9942 29.0903 13.2269 29.0903C13.4596 29.0903 13.6923 29.0012 13.8696 28.8239C14.2251 28.4685 14.2251 27.8939 13.8696 27.5385L9.96695 23.6358L13.8696 19.7332C14.2251 19.3777 14.2251 18.8032 13.8696 18.4477Z" fill="#08105E"/>
<path d="M28.4149 18.4477C28.0595 18.0923 27.485 18.0923 27.1295 18.4477C26.7741 18.8032 26.7741 19.3777 27.1295 19.7332L31.0322 23.6358L27.1295 27.5385C26.7741 27.8939 26.7741 28.4685 27.1295 28.8239C27.3068 29.0012 27.5395 29.0903 27.7722 29.0903C28.0049 29.0903 28.2377 29.0012 28.4149 28.8239L32.9603 24.2786C33.3158 23.9231 33.3158 23.3486 32.9603 22.9931L28.4149 18.4477Z" fill="#08105E"/>
<path d="M23.6333 17.3681C23.1852 17.1427 22.6388 17.3254 22.4133 17.7745L16.9589 28.6834C16.7343 29.1325 16.9162 29.6788 17.3652 29.9034C17.4962 29.9679 17.6343 29.9988 17.7707 29.9988C18.1043 29.9988 18.4252 29.8152 18.5852 29.4961L24.0397 18.5872C24.2642 18.1381 24.0824 17.5926 23.6333 17.3681Z" fill="#08105E"/>
<path d="M35.9543 3.63647H5.04575C2.53942 3.63647 0.500366 5.67553 0.500366 8.18185V31.8178C0.500366 34.3242 2.53942 36.3632 5.04575 36.3632H35.9543C38.4607 36.3632 40.4997 34.3242 40.4997 31.8178V8.18185C40.4997 5.67553 38.4607 3.63647 35.9543 3.63647ZM5.04575 5.45463H35.9543C37.4579 5.45463 38.6816 6.67824 38.6816 8.18185V10.9091H2.31852V8.18185C2.31852 6.67824 3.54213 5.45463 5.04575 5.45463ZM35.9543 34.5451H5.04575C3.54213 34.5451 2.31852 33.3214 2.31852 31.8178V12.7272H38.6816V31.8178C38.6816 33.3214 37.4579 34.5451 35.9543 34.5451Z" fill="#08105E"/>
<path d="M5.04543 9.0911C5.5475 9.0911 5.9545 8.68409 5.9545 8.18203C5.9545 7.67996 5.5475 7.27295 5.04543 7.27295C4.54336 7.27295 4.13635 7.67996 4.13635 8.18203C4.13635 8.68409 4.54336 9.0911 5.04543 9.0911Z" fill="#08105E"/>
<path d="M8.68239 9.0911C9.18446 9.0911 9.59147 8.68409 9.59147 8.18203C9.59147 7.67996 9.18446 7.27295 8.68239 7.27295C8.18032 7.27295 7.77332 7.67996 7.77332 8.18203C7.77332 8.68409 8.18032 9.0911 8.68239 9.0911Z" fill="#08105E"/>
<path d="M12.3184 9.0911C12.8204 9.0911 13.2275 8.68409 13.2275 8.18203C13.2275 7.67996 12.8204 7.27295 12.3184 7.27295C11.8163 7.27295 11.4093 7.67996 11.4093 8.18203C11.4093 8.68409 11.8163 9.0911 12.3184 9.0911Z" fill="#08105E"/>
</g>
<defs>
<clipPath id="clip0_546_24623">
<rect width="40" height="40" fill="white" transform="translate(0.5)"/>
</clipPath>
</defs>
</svg>
