<svg width="41" height="40" viewBox="0 0 41 40" fill="none" xmlns="http://www.w3.org/2000/svg">
<g clip-path="url(#clip0_546_24532)">
<path d="M30.5606 15.4226C30.5606 7.33815 24.0069 0.784424 15.9224 0.784424C7.83795 0.784424 1.2843 7.33823 1.2843 15.4226C1.2843 18.9272 2.51644 22.1435 4.57038 24.6636H4.56936L15.9224 39.2153L27.2213 24.7398H27.2129C29.3041 22.2086 30.5606 18.9624 30.5606 15.4226Z" fill="#FDCB50"/>
<path d="M10.4188 13.4306C10.4188 8.77599 11.8434 4.45439 14.2794 0.876709C6.96855 1.69356 1.2843 7.89372 1.2843 15.4226C1.2843 18.9272 2.51644 22.1435 4.57038 24.6636H4.56936L15.9224 39.2153L21.1503 32.5177C14.7157 28.598 10.4188 21.5162 10.4188 13.4306Z" fill="#FD8F01"/>
<path fill-rule="evenodd" clip-rule="evenodd" d="M25.0235 15.6562C25.0235 14.9944 24.9509 14.3499 24.8166 13.7283L26.1997 12.4789L23.8141 8.35404L22.0441 8.92604C21.0931 8.06197 19.9577 7.39798 18.7046 6.99712L18.3146 5.17651H13.55L13.16 6.99712C11.9069 7.39798 10.7715 8.06197 9.82049 8.92604L8.05047 8.35404L5.66486 12.4789L7.04798 13.7283C6.9137 14.3498 6.84116 14.9944 6.84116 15.6562C6.84116 16.3179 6.9137 16.9624 7.04798 17.5841L5.66486 18.8335L8.05047 22.9583L9.82049 22.3863C10.7715 23.2503 11.9069 23.9143 13.16 24.3152L13.55 26.1358H18.3146L18.7046 24.3152C19.9577 23.9143 21.0931 23.2503 22.0441 22.3863L23.8141 22.9583L26.1997 18.8335L24.8166 17.5841C24.951 16.9624 25.0235 16.3179 25.0235 15.6562Z" fill="white"/>
<path d="M19.5023 19.2295C21.4756 17.2561 21.4756 14.0566 19.5022 12.0832C17.5288 10.1098 14.3293 10.1098 12.3559 12.0831C10.3826 14.0565 10.3826 17.256 12.356 19.2294C14.3294 21.2028 17.5289 21.2028 19.5023 19.2295Z" fill="#93B2F4"/>
<path fill-rule="evenodd" clip-rule="evenodd" d="M31.8767 27.6797L38.9451 34.0998C39.9392 35.0027 39.9765 36.5535 39.0268 37.5031C38.0772 38.4527 36.5264 38.4155 35.6235 37.4214L29.2034 30.3529L31.8767 27.6797Z" fill="#27A2CC"/>
<path d="M30.5772 29.0588C33.4693 26.1668 33.4693 21.4778 30.5772 18.5857C27.6852 15.6936 22.9962 15.6936 20.1041 18.5857C17.212 21.4778 17.212 26.1668 20.1041 29.0588C22.9962 31.9509 27.6852 31.9509 30.5772 29.0588Z" fill="#D2DCFD"/>
<path d="M28.1132 26.5948C29.6444 25.0636 29.6444 22.581 28.1132 21.0497C26.582 19.5185 24.0994 19.5185 22.5682 21.0497C21.037 22.581 21.037 25.0636 22.5682 26.5948C24.0994 28.126 26.582 28.126 28.1132 26.5948Z" fill="white"/>
<path d="M39.4725 33.5196L32.72 27.3865C33.2431 26.3084 33.5369 25.0992 33.5369 23.8226C33.5369 21.5598 32.6144 19.5083 31.126 18.0245C31.2712 17.1691 31.3448 16.2958 31.3448 15.4227C31.3448 6.91875 24.4263 0.000244141 15.9224 0.000244141C7.41851 0.000244141 0.5 6.91875 0.5 15.4226C0.5 18.9495 1.72093 22.3954 3.93902 25.1303C3.94294 25.1356 3.94694 25.1408 3.95102 25.1461L15.3041 39.6978C15.4527 39.8882 15.6808 39.9996 15.9223 39.9997H15.9224C16.164 39.9997 16.392 39.8884 16.5407 39.698L22.8442 31.6223C23.6331 31.8759 24.4737 32.0135 25.3458 32.0135C26.6224 32.0135 27.8317 31.7198 28.9098 31.1967L35.043 37.9491C35.6254 38.5903 36.423 38.9548 37.289 38.9756C37.315 38.9763 37.3409 38.9766 37.3669 38.9766C38.2036 38.9766 38.9875 38.6521 39.5814 38.0581C40.194 37.4456 40.5198 36.6315 40.499 35.7655C40.4782 34.8995 40.1136 34.102 39.4725 33.5196ZM15.9226 37.9406L5.21022 24.21C5.2001 24.1958 5.18951 24.1818 5.17838 24.1682C3.17299 21.7077 2.06861 18.6018 2.06861 15.4226C2.06861 7.78368 8.28344 1.56885 15.9225 1.56885C23.5615 1.56885 29.7763 7.78368 29.7763 15.4227C29.7763 15.9122 29.7497 16.4015 29.6988 16.887C28.4369 16.0922 26.9443 15.6315 25.3459 15.6315C20.8294 15.6315 17.1549 19.306 17.1549 23.8226C17.1549 26.8927 18.8531 29.5733 21.3593 30.9756L15.9226 37.9406ZM18.7235 23.8226C18.7235 20.1709 21.6943 17.2001 25.3459 17.2001C28.9975 17.2001 31.9683 20.1709 31.9683 23.8226C31.9683 27.4741 28.9975 30.4449 25.3459 30.4449C21.6943 30.4449 18.7235 27.4741 18.7235 23.8226ZM38.4723 36.949C38.1662 37.255 37.759 37.4177 37.3266 37.4075C36.8938 37.3971 36.4952 37.2149 36.2041 36.8944L30.2715 30.3627C30.8816 29.9021 31.4254 29.3582 31.8861 28.7481L38.4177 34.6807C38.7382 34.9718 38.9204 35.3703 38.9308 35.8031C38.9412 36.2359 38.7784 36.6429 38.4723 36.949Z" fill="#052A75"/>
</g>
<defs>
<clipPath id="clip0_546_24532">
<rect width="40" height="40" fill="white" transform="translate(0.5)"/>
</clipPath>
</defs>
</svg>
