<svg width="41" height="40" viewBox="0 0 41 40" fill="none" xmlns="http://www.w3.org/2000/svg">
<path d="M5.87356 24.4444C7.95051 24.4444 9.63421 22.7627 9.63421 20.6883C9.63421 18.6138 7.95051 16.9321 5.87356 16.9321C3.79661 16.9321 2.11292 18.6138 2.11292 20.6883C2.11292 22.7627 3.79661 24.4444 5.87356 24.4444Z" fill="#74D2F7"/>
<path d="M5.47975 17.9522C5.27717 17.4919 4.73813 17.2826 4.27813 17.4848C3.30265 17.9142 2.57329 18.7881 2.32749 19.8226C2.27136 20.0593 2.31039 20.3039 2.43813 20.5113C2.56588 20.7187 2.76652 20.8639 3.002 20.9197C3.07136 20.9364 3.14297 20.9448 3.21458 20.9448C3.63878 20.9448 4.00297 20.6564 4.10104 20.2439C4.21555 19.7619 4.5562 19.3542 5.01265 19.1535C5.47265 18.951 5.682 18.4119 5.47975 17.9522Z" fill="#D7F4FF"/>
<path d="M9.38102 20.4772C9.23102 20.2681 9.00877 20.1298 8.75683 20.0881C8.50296 20.0459 8.24844 20.1039 8.03844 20.2536C7.82812 20.4039 7.68909 20.6268 7.64715 20.882C7.53006 21.592 7.00425 22.1727 6.3078 22.3614C5.79522 22.5004 5.49102 23.0304 5.62973 23.5436C5.74361 23.9627 6.12586 24.2549 6.55941 24.2549C6.6449 24.2549 6.73006 24.2436 6.81167 24.2214C8.2349 23.8359 9.30909 22.6481 9.54812 21.1956C9.59038 20.9414 9.53102 20.6862 9.38102 20.4772Z" fill="#3ACCF9"/>
<path d="M19.1568 18.6753C21.8206 18.6753 23.9801 16.5158 23.9801 13.852C23.9801 11.1882 21.8206 9.02881 19.1568 9.02881C16.493 9.02881 14.3336 11.1882 14.3336 13.852C14.3336 16.5158 16.493 18.6753 19.1568 18.6753Z" fill="#74D2F7"/>
<path d="M18.0481 10.3836C17.8265 9.88009 17.2375 9.65074 16.7346 9.87235C15.6684 10.3424 14.871 11.2988 14.6023 12.4307C14.541 12.6901 14.5839 12.9575 14.7233 13.1843C14.863 13.4114 15.0823 13.5701 15.3397 13.6314C15.4155 13.6494 15.4936 13.6588 15.572 13.6588C16.0355 13.6588 16.4339 13.3433 16.541 12.8917C16.6662 12.3643 17.0388 11.9182 17.5375 11.6985C18.0401 11.4769 18.2691 10.8872 18.0481 10.3836Z" fill="#D7F4FF"/>
<path d="M23.6552 13.5812C23.463 13.3128 23.1778 13.135 22.8549 13.0818C22.5291 13.0273 22.2027 13.1021 21.9336 13.2941C21.6639 13.487 21.4856 13.7734 21.4317 14.1008C21.2814 15.0124 20.6072 15.7583 19.7139 16.0005C19.0568 16.1792 18.6665 16.8599 18.8446 17.5186C18.9907 18.0566 19.481 18.4321 20.0372 18.4321C20.1468 18.4321 20.2562 18.4176 20.3607 18.3889C22.1862 17.8941 23.5636 16.3686 23.8704 14.5034C23.9236 14.1773 23.8475 13.8495 23.6552 13.5812Z" fill="#3ACCF9"/>
<path d="M31.5897 8.28008C33.6667 8.28008 35.3504 6.5984 35.3504 4.52395C35.3504 2.4495 33.6667 0.767822 31.5897 0.767822C29.5128 0.767822 27.8291 2.4495 27.8291 4.52395C27.8291 6.5984 29.5128 8.28008 31.5897 8.28008Z" fill="#74D2F7"/>
<path d="M31.1959 1.78794C30.9934 1.32762 30.4543 1.11826 29.9943 1.32052C29.0188 1.74987 28.2895 2.62375 28.0437 3.65826C27.9875 3.89504 28.0266 4.13955 28.1543 4.34697C28.2821 4.55439 28.4827 4.69955 28.7182 4.75536C28.7875 4.77213 28.8592 4.78052 28.9308 4.78052C29.355 4.78052 29.7192 4.49213 29.8172 4.07955C29.9317 3.59762 30.2724 3.18987 30.7288 2.98923C31.1885 2.78697 31.3982 2.24794 31.1959 1.78794Z" fill="#D7F4FF"/>
<path d="M35.0972 4.31287C34.9472 4.10383 34.725 3.96545 34.473 3.92383C34.2191 3.88157 33.9646 3.93964 33.7546 4.08932C33.5443 4.23964 33.4053 4.46254 33.3633 4.7177C33.2462 5.4277 32.7204 6.00835 32.024 6.19706C31.5114 6.33609 31.2072 6.86609 31.3459 7.37932C31.4598 7.79835 31.842 8.09061 32.2756 8.09061C32.3611 8.09061 32.4462 8.07932 32.5279 8.05706C33.9511 7.67157 35.0253 6.48383 35.2643 5.03125C35.3066 4.77738 35.2469 4.52222 35.0972 4.31287Z" fill="#3ACCF9"/>
<path d="M35.3501 20.0698C37.3036 20.0698 38.8872 18.4862 38.8872 16.5327C38.8872 14.5792 37.3036 12.9956 35.3501 12.9956C33.3966 12.9956 31.813 14.5792 31.813 16.5327C31.813 18.4862 33.3966 20.0698 35.3501 20.0698Z" fill="#74D2F7"/>
<path d="M34.9797 13.956C34.7891 13.5228 34.282 13.3254 33.8497 13.516C32.9323 13.9206 32.2465 14.7435 32.0152 15.7173C31.9623 15.9406 31.9994 16.1706 32.1194 16.3657C32.2394 16.5609 32.4284 16.6977 32.6497 16.7506C32.7149 16.7664 32.7823 16.7741 32.8494 16.7741C33.2481 16.7741 33.591 16.5025 33.6833 16.1141C33.791 15.6602 34.1117 15.2764 34.5407 15.0873C34.9729 14.8967 35.17 14.3893 34.9797 13.956Z" fill="#D7F4FF"/>
<path d="M38.6492 16.3344C38.5082 16.1377 38.2992 16.0073 38.0621 15.9683C37.823 15.9283 37.5837 15.9831 37.3866 16.1241C37.1888 16.2657 37.0579 16.4757 37.0185 16.7157C36.9085 17.3844 36.414 17.9312 35.7588 18.1089C35.2769 18.2399 34.9908 18.7389 35.1211 19.2222C35.2282 19.6167 35.5879 19.8922 35.9956 19.8922C36.0759 19.8922 36.1563 19.8815 36.2327 19.8606C37.5714 19.4977 38.5814 18.3789 38.8066 17.0112C38.8459 16.7715 38.7901 16.5315 38.6492 16.3344Z" fill="#3ACCF9"/>
<path d="M9.27709 7.71946C11.2306 7.71946 12.8142 6.13585 12.8142 4.18236C12.8142 2.22888 11.2306 0.645264 9.27709 0.645264C7.3236 0.645264 5.73999 2.22888 5.73999 4.18236C5.73999 6.13585 7.3236 7.71946 9.27709 7.71946Z" fill="#74D2F7"/>
<path d="M8.90685 1.6057C8.7162 1.17247 8.2091 0.975054 7.77685 1.1657C6.85943 1.57022 6.17362 2.39312 5.94233 3.36699C5.88943 3.59021 5.92652 3.82021 6.04652 4.01538C6.16652 4.21054 6.35556 4.34731 6.57685 4.40021C6.64201 4.41602 6.70943 4.42376 6.77652 4.42376C7.17523 4.42376 7.51814 4.15215 7.61039 3.76376C7.71814 3.30989 8.03878 2.92602 8.46781 2.73699C8.90007 2.54634 9.09717 2.03892 8.90685 1.6057Z" fill="#D7F4FF"/>
<path d="M12.5758 3.98385C12.4348 3.78707 12.2258 3.65675 11.9887 3.61772C11.7497 3.57772 11.5103 3.63256 11.3132 3.77352C11.1155 3.91514 10.9845 4.12514 10.9451 4.36514C10.8351 5.03385 10.3406 5.58062 9.68547 5.75836C9.20353 5.88933 8.9174 6.38836 9.04772 6.87159C9.15482 7.2661 9.5145 7.54159 9.92224 7.54159C10.0026 7.54159 10.0829 7.53094 10.1593 7.50997C11.498 7.14707 12.508 6.02836 12.7332 4.66062C12.7729 4.42094 12.7171 4.18062 12.5758 3.98385Z" fill="#3ACCF9"/>
<path d="M35.35 12.3506C33.3171 12.3506 31.6204 13.8094 31.2465 15.7345L24.5971 14.3761C24.7004 13.3626 24.5162 12.3752 24.0445 11.4139L28.5994 7.74645C29.3858 8.47516 30.4349 8.92484 31.5897 8.92484C34.0191 8.92484 35.9955 6.95032 35.9955 4.52323C35.9955 2.09613 34.0187 0.122258 31.5894 0.122258C29.16 0.122258 27.1839 2.09677 27.1839 4.52387C27.1839 5.3329 27.4074 6.08935 27.7904 6.74161L23.3336 10.33C22.3297 9.14129 20.8307 8.38323 19.1568 8.38323C17.6629 8.38323 16.3081 8.98677 15.3204 9.96097L12.3839 6.97258C13.0504 6.23161 13.4597 5.25484 13.4597 4.18226C13.4594 1.87613 11.5833 0 9.27713 0C6.971 0 5.09487 1.87613 5.09487 4.18226C5.09487 6.48839 6.971 8.36452 9.27713 8.36452C10.0439 8.36452 10.761 8.15355 11.3794 7.79194L14.512 10.98C13.6397 12.4803 13.4604 14.0213 13.9733 15.6032L9.37971 18.0345C8.57455 16.9752 7.30422 16.2871 5.87326 16.2871C3.44422 16.2868 1.46777 18.2613 1.46777 20.6881C1.46777 23.1148 3.44423 25.0897 5.87358 25.0897C8.30293 25.0897 10.2794 23.1152 10.2794 20.6881C10.2794 20.1523 10.1781 19.6406 10.002 19.1652L14.5313 16.7681C14.6171 16.9039 14.7084 17.0371 14.8071 17.1661C15.092 17.4574 15.3933 17.4981 15.7113 17.2877C15.9945 17.0716 16.0491 16.6668 15.8329 16.3835C15.2742 15.651 14.9791 14.7758 14.9791 13.8519C14.9791 11.5481 16.8533 9.67355 19.1571 9.67355C21.461 9.67355 23.3352 11.5481 23.3352 13.8519C23.3352 14.5406 23.1645 15.2226 22.8416 15.8242C22.6733 16.1381 22.791 16.5294 23.1049 16.6977C23.4191 16.8661 23.81 16.7481 23.9784 16.4345C24.1155 16.179 24.2294 15.9116 24.3239 15.6374L31.2029 17.0426C31.4555 19.1087 33.2175 20.7155 35.3507 20.7155C37.6568 20.7155 39.5329 18.8394 39.5329 16.5332C39.5329 14.2271 37.6562 12.3506 35.35 12.3506ZM31.5894 1.41258C33.3071 1.41258 34.7049 2.80839 34.7049 4.52387C34.7049 6.23935 33.3071 7.63516 31.5894 7.63516C29.8716 7.63516 28.4739 6.23935 28.4739 4.52387C28.4739 2.80839 29.8716 1.41258 31.5894 1.41258ZM9.27713 7.07452C7.68261 7.07452 6.38519 5.7771 6.38519 4.18258C6.38519 2.58806 7.68261 1.29032 9.27713 1.29032C10.8716 1.29032 12.1691 2.58774 12.1691 4.18226C12.1691 5.77677 10.8716 7.07452 9.27713 7.07452ZM5.87358 23.7994C4.15584 23.7994 2.7581 22.4035 2.7581 20.6881C2.7581 18.9726 4.15584 17.5771 5.87358 17.5771C7.59132 17.5771 8.98906 18.9726 8.98906 20.6881C8.98906 22.4035 7.59132 23.7994 5.87358 23.7994ZM35.35 19.4252C33.7555 19.4252 32.4584 18.1277 32.4584 16.5332C32.4584 14.9387 33.7555 13.6413 35.35 13.6413C36.9445 13.6413 38.242 14.9387 38.242 16.5332C38.242 18.1277 36.9449 19.4252 35.35 19.4252Z" fill="#2B1100"/>
<path d="M33.3681 31.8271V25.3087C33.3681 24.1378 32.4207 23.1884 31.252 23.1884C30.1816 23.1884 29.3139 24.0578 29.3139 25.13V27.3181V23.5455C29.3139 22.3113 28.3152 21.311 27.0836 21.311C26.0133 21.311 25.1455 22.1803 25.1455 23.2526V25.4552V21.8552C25.1455 20.7829 24.2778 19.9136 23.2075 19.9136C22.1371 19.9136 21.2694 20.7829 21.2694 21.8552V23.3852V13.9049C21.2694 13.1045 20.4016 12.2349 19.3313 12.2349C18.1645 12.2349 17.2184 13.1826 17.2184 14.3516V25.7997V27.6103L16.0055 25.4191C15.4607 24.4345 14.2326 24.0758 13.251 24.6139C12.3016 25.1345 11.9191 26.3123 12.3791 27.2991L17.4978 37.3684C18.1175 38.5874 19.3671 39.3549 20.7323 39.3549H26.7426C30.402 39.3549 33.3684 36.3829 33.3684 32.7165L33.3681 31.8271Z" fill="#FFCC64"/>
<path d="M16.2655 25.4474C15.6806 24.3909 14.3468 24.0025 13.2935 24.5816C12.2745 25.1403 11.8665 26.4141 12.3658 27.4845L14.1532 31.0009C14.2742 31.2393 14.5158 31.387 14.7832 31.387C14.8932 31.387 15.0039 31.3606 15.1029 31.3103C15.271 31.2248 15.3958 31.079 15.4542 30.8996C15.5126 30.7203 15.4977 30.529 15.4123 30.3609L13.6355 26.8664C13.4565 26.4816 13.6045 26.0219 13.9729 25.8199C14.3471 25.6148 14.8216 25.7541 15.0303 26.1316C15.1219 26.2967 15.2723 26.4164 15.4539 26.4687C15.6348 26.5203 15.8248 26.4986 15.99 26.4077C16.3303 26.2186 16.4539 25.788 16.2655 25.4474Z" fill="#FFE6C2"/>
<path d="M26.0994 39.355H23.4523C23.0971 39.355 22.8091 39.0669 22.8091 38.7118C22.8091 38.3566 23.0971 38.0686 23.4523 38.0686H26.0994C29.3981 38.0686 32.082 35.3792 32.082 32.0734C32.082 31.7182 32.3701 31.4302 32.7252 31.4302C33.0804 31.4302 33.3684 31.7182 33.3684 32.0734C33.3684 36.5147 30.7304 39.355 26.0994 39.355Z" fill="#F9B43A"/>
<path d="M26.7426 39.9998H20.7323C19.1158 39.9998 17.6561 39.1036 16.9226 37.6607L11.8039 27.5914C11.192 26.2788 11.6955 24.7311 12.941 24.0482C14.2278 23.3427 15.8561 23.8169 16.5703 25.1066L16.5732 25.112V24.3527C16.5732 23.9966 16.8623 23.7075 17.2184 23.7075C17.5745 23.7075 17.8636 23.9966 17.8636 24.3527V27.6104C17.6216 28.3391 17.2184 28.4433 16.6539 27.9227L15.4413 25.7314C15.071 25.0624 14.2278 24.8146 13.5613 25.1798C12.91 25.5369 12.6474 26.3482 12.9636 27.0269L18.0723 37.0762C18.5852 38.0836 19.6042 38.7095 20.7323 38.7095H26.7423C29.9384 38.7095 32.5623 36.2059 32.7158 33.0098C32.7329 32.654 33.0316 32.3856 33.3913 32.3966C33.7471 32.4136 34.022 32.7159 34.0045 33.0717C33.8184 36.9566 30.6281 39.9998 26.7426 39.9998Z" fill="#2B1100"/>
<path d="M33.368 30.8623C33.0119 30.8623 32.7229 30.5732 32.7229 30.2171V25.3087C32.7229 24.4955 32.0632 23.8336 31.2519 23.8336C30.539 23.8336 29.959 24.4152 29.959 25.13V27.3184C29.959 27.6745 29.67 27.9635 29.3138 27.9635C28.9577 27.9635 28.6687 27.6745 28.6687 27.3184V23.5455C28.6687 22.669 27.9574 21.9561 27.0832 21.9561C26.3703 21.9561 25.7903 22.5377 25.7903 23.2526V25.4552C25.7903 25.8113 25.5013 26.1003 25.1451 26.1003C24.789 26.1003 24.5 25.8113 24.5 25.4552V21.8552C24.5 21.1403 23.92 20.5584 23.2071 20.5584C22.4942 20.5584 21.9142 21.14 21.9142 21.8552V23.3852C21.9142 23.7413 21.6251 24.0303 21.269 24.0303C20.9129 24.0303 20.6238 23.7413 20.6238 23.3852V13.9048C20.6238 13.4923 20.0809 12.88 19.3309 12.88C18.5216 12.88 17.8632 13.5403 17.8632 14.3519V21.6826C17.8632 22.0387 17.5742 22.3277 17.218 22.3277C16.8619 22.3277 16.5729 22.0387 16.5729 21.6826V14.3516C16.5729 12.8287 17.81 11.5894 19.3309 11.5894C20.6829 11.5894 21.9142 12.6929 21.9142 13.9045V19.6161C22.2945 19.3948 22.7364 19.2681 23.2071 19.2681C24.3638 19.2681 25.3455 20.0335 25.6735 21.0855C26.079 20.82 26.5635 20.6655 27.0832 20.6655C28.458 20.6655 29.6109 21.6371 29.8929 22.9303C30.288 22.6845 30.7535 22.5426 31.2516 22.5426C32.7742 22.5426 34.0129 23.7832 34.0129 25.3081V30.2165C34.0132 30.5735 33.7245 30.8623 33.368 30.8623Z" fill="#2B1100"/>
</svg>
