<svg width="41" height="40" viewBox="0 0 41 40" fill="none" xmlns="http://www.w3.org/2000/svg">
<path d="M39.8823 18.3647V21.6294C39.8823 21.977 39.6456 22.2799 39.3084 22.3639L36.9079 22.9619C36.6285 23.0315 36.4188 23.2555 36.3564 23.5365C35.9427 25.4004 35.2107 27.1444 34.2174 28.7077C34.0633 28.9503 34.0536 29.2558 34.2013 29.5024L35.4745 31.6271C35.6528 31.9247 35.606 32.3053 35.361 32.5508L33.0544 34.8618C32.8087 35.1079 32.4268 35.155 32.1287 34.9758L30.0057 33.6994C29.759 33.5511 29.4529 33.5606 29.2099 33.715C27.6474 34.7081 25.9081 35.4399 24.0449 35.8536C23.7642 35.9159 23.5403 36.1252 23.4705 36.4041L22.8674 38.8123C22.783 39.1491 22.4803 39.3854 22.1331 39.3854H18.867C18.5198 39.3854 18.2171 39.1491 18.1328 38.8123L17.5296 36.4041C17.4598 36.1252 17.2358 35.9159 16.9551 35.8536C15.0924 35.44 13.3538 34.7084 11.7959 33.7156C11.553 33.5608 11.2468 33.551 10.9999 33.6991L8.87111 34.9764C8.57307 35.1552 8.1915 35.1081 7.94596 34.8621L5.639 32.5508C5.39393 32.3053 5.34713 31.9247 5.52549 31.6271L6.78604 29.5234C6.94025 29.2661 6.92135 28.9469 6.75197 28.6992C5.72807 27.2018 5.04744 25.4029 4.64314 23.5404C4.58158 23.2569 4.36924 23.0309 4.08768 22.9608L1.69158 22.3639C1.35432 22.2799 1.11768 21.977 1.11768 21.6294V18.3647C1.11768 18.0171 1.35439 17.7142 1.69158 17.6302L4.08947 17.0329C4.3701 16.9629 4.58072 16.7375 4.64291 16.455C5.05283 14.5927 5.7883 12.8502 6.78127 11.2881C6.93604 11.0447 6.94564 10.7376 6.79713 10.4902L5.52611 8.37326C5.34744 8.07568 5.39408 7.69467 5.63932 7.44896L7.94557 5.13834C8.19127 4.89217 8.57314 4.84514 8.87127 5.02436L10.9928 6.29982C11.2403 6.44857 11.5473 6.4385 11.7906 6.28287C13.3491 5.28576 15.0924 4.55397 16.9602 4.14045C17.2413 4.07818 17.4657 3.86834 17.5353 3.58889L18.1333 1.18865C18.2173 0.851387 18.5202 0.614746 18.8678 0.614746H22.1324C22.48 0.614746 22.7829 0.851465 22.8669 1.18865L23.4642 3.58662C23.5342 3.86725 23.7596 4.07787 24.0421 4.14006C25.9045 4.55006 27.6472 5.2856 29.2095 6.27873C29.4528 6.43334 29.7595 6.4431 30.0068 6.2949L32.1292 5.02318C32.4272 4.84459 32.8085 4.89186 33.0539 5.13771L35.3607 7.44889C35.606 7.69459 35.6526 8.07561 35.4739 8.37318L34.2029 10.4901C34.0544 10.7375 34.064 11.0446 34.2188 11.288C35.2117 12.8501 35.9472 14.5926 36.3571 16.4549C36.4193 16.7373 36.6299 16.9629 36.9106 17.0328L39.3085 17.6301C39.6456 17.7142 39.8823 18.0171 39.8823 18.3647Z" fill="#F77953"/>
<path d="M32.5587 19.9966C32.5587 26.6568 27.1581 32.0574 20.5023 32.0574C13.842 32.0574 8.44141 26.6568 8.44141 19.9966C8.44141 13.3363 13.842 7.94019 20.5023 7.94019C27.158 7.94019 32.5587 13.3363 32.5587 19.9966Z" fill="white"/>
<path d="M15.0601 27.9524C14.8322 27.9524 14.6477 27.7677 14.6477 27.54V23.7874C14.6477 23.5596 14.8322 23.375 15.0601 23.375C15.2881 23.375 15.4725 23.5597 15.4725 23.7874V27.54C15.4726 27.7677 15.2882 27.9524 15.0601 27.9524Z" fill="#84405F"/>
<path d="M15.0601 19.7944C14.8322 19.7944 14.6477 19.6097 14.6477 19.382V12.4603C14.6477 12.2325 14.8322 12.0479 15.0601 12.0479C15.2881 12.0479 15.4725 12.2325 15.4725 12.4603V19.382C15.4726 19.6097 15.2882 19.7944 15.0601 19.7944Z" fill="#84405F"/>
<path d="M20.4998 16.6255C20.2719 16.6255 20.0874 16.4408 20.0874 16.2131V12.4608C20.0874 12.2329 20.2719 12.0483 20.4998 12.0483C20.7278 12.0483 20.9122 12.233 20.9122 12.4608V16.2131C20.9122 16.4408 20.7278 16.6255 20.4998 16.6255Z" fill="#84405F"/>
<path d="M20.4998 27.9523C20.2719 27.9523 20.0874 27.7676 20.0874 27.5399V20.618C20.0874 20.3902 20.2719 20.2056 20.4998 20.2056C20.7278 20.2056 20.9122 20.3903 20.9122 20.618V27.5399C20.9122 27.7676 20.7278 27.9523 20.4998 27.9523Z" fill="#84405F"/>
<path d="M25.9399 27.952C25.7119 27.952 25.5275 27.7673 25.5275 27.5396V23.2537C25.5275 23.0259 25.7119 22.8413 25.9399 22.8413C26.1679 22.8413 26.3523 23.026 26.3523 23.2537V27.5396C26.3523 27.7673 26.1679 27.952 25.9399 27.952Z" fill="#84405F"/>
<path d="M25.9399 19.2611C25.7119 19.2611 25.5275 19.0764 25.5275 18.8487V12.4603C25.5275 12.2325 25.7119 12.0479 25.9399 12.0479C26.1679 12.0479 26.3523 12.2325 26.3523 12.4603V18.8487C26.3523 19.0764 26.1679 19.2611 25.9399 19.2611Z" fill="#84405F"/>
<path opacity="0.1" d="M29.6498 12.1509C27.5422 10.3361 24.7994 9.24313 21.805 9.24313C15.148 9.24313 9.74477 14.6421 9.74477 21.2992C9.74477 24.3059 10.846 27.0529 12.6691 29.1646C10.083 26.9538 8.44141 23.6666 8.44141 19.9958C8.44141 13.3346 13.8405 7.9397 20.5016 7.9397C24.1641 7.93978 27.4432 9.57313 29.6498 12.1509Z" fill="black"/>
<path d="M15.06 23.7873C16.2765 23.7873 17.2625 22.8012 17.2625 21.5848C17.2625 20.3684 16.2765 19.3823 15.06 19.3823C13.8436 19.3823 12.8575 20.3684 12.8575 21.5848C12.8575 22.8012 13.8436 23.7873 15.06 23.7873Z" fill="#F77953"/>
<path d="M20.5 20.6179C21.7164 20.6179 22.7025 19.6318 22.7025 18.4154C22.7025 17.199 21.7164 16.2129 20.5 16.2129C19.2836 16.2129 18.2975 17.199 18.2975 18.4154C18.2975 19.6318 19.2836 20.6179 20.5 20.6179Z" fill="#4F8AFF"/>
<path d="M25.9398 23.2541C27.1562 23.2541 28.1423 22.268 28.1423 21.0516C28.1423 19.8352 27.1562 18.8491 25.9398 18.8491C24.7234 18.8491 23.7373 19.8352 23.7373 21.0516C23.7373 22.268 24.7234 23.2541 25.9398 23.2541Z" fill="#543843"/>
</svg>
