<svg width="269" height="46" viewBox="0 0 269 46" fill="none" xmlns="http://www.w3.org/2000/svg">
<g clip-path="url(#clip0_546_26709)">
<path fill-rule="evenodd" clip-rule="evenodd" d="M71.7767 0.602051L48.8948 45.3298H27.4044L36.9792 26.7928H36.5481C28.6485 37.0483 16.8616 43.7983 0.0678711 45.3298V27.0499C0.0678711 27.0499 10.8111 26.4147 17.1263 19.7743H0.0716534V0.602051H19.2439V16.371H19.675L27.5103 0.602051H42.0086V16.2726H42.4397L50.57 0.602051H71.7767Z" fill="white"/>
<path d="M196.544 40.3948H202.719V4.95068H196.544V40.3948Z" fill="white"/>
<path fill-rule="evenodd" clip-rule="evenodd" d="M162.507 40.032C163.849 40.5917 165.214 40.8677 166.602 40.8677C168.894 40.8677 170.943 40.3081 172.755 39.1925C174.562 38.077 175.965 36.5379 176.964 34.5791C177.958 32.6051 178.457 30.3627 178.457 27.8631C178.457 25.3598 177.943 23.1211 176.918 21.1472C175.893 19.1732 174.468 17.6417 172.641 16.5564C170.819 15.456 168.743 14.9114 166.421 14.9266C164.942 14.9266 163.524 15.214 162.17 15.785C160.813 16.3598 159.682 17.1728 158.778 18.2278C158.71 18.3072 158.642 18.3904 158.574 18.4698V4.97363H152.376V40.3951H158.529L158.517 37.0862C158.676 37.2829 158.846 37.472 159.028 37.6572C160.004 38.6669 161.164 39.4572 162.507 40.032ZM168.837 34.3106C167.827 34.927 166.674 35.2371 165.377 35.2371C164.095 35.2371 162.919 34.9194 161.849 34.2879C160.779 33.6375 159.928 32.7564 159.293 31.6409C158.676 30.5253 158.366 29.2585 158.366 27.8404C158.351 26.4224 158.654 25.1556 159.27 24.04C159.901 22.9093 160.756 22.0358 161.826 21.4156C162.896 20.7841 164.08 20.474 165.377 20.4892C166.674 20.474 167.827 20.7766 168.837 21.393C169.862 21.9942 170.645 22.864 171.189 23.9946C171.749 25.1102 172.025 26.3921 172.025 27.8404C172.025 29.2888 171.745 30.5707 171.189 31.6862C170.648 32.8018 169.866 33.6753 168.837 34.3106Z" fill="white"/>
<path d="M80.7239 7.09863H87.7802L94.0915 30.1545L100.807 7.09863H106.688L113.971 29.6894L120.033 7.09863H126.503L116.958 40.3911H110.874L103.47 18.3222L96.6705 40.3911H90.518L80.7239 7.09863Z" fill="white"/>
<path fill-rule="evenodd" clip-rule="evenodd" d="M136.925 40.9812C134.467 40.9963 132.251 40.4517 130.273 39.3513C128.314 38.2358 126.768 36.6891 125.637 34.7152C124.521 32.7412 123.962 30.4875 123.962 27.9538C123.962 25.4959 124.536 23.2723 125.682 21.2833C126.828 19.2942 128.382 17.74 130.341 16.6244C132.3 15.5089 134.489 14.9492 136.902 14.9492C139.617 14.9492 141.992 15.5505 144.026 16.7568C146.076 17.9631 147.607 19.6761 148.617 21.8921C149.642 24.0929 150.013 26.619 149.725 29.4702H130.352C130.405 30.6047 130.689 31.637 131.203 32.5673C131.778 33.5921 132.576 34.39 133.601 34.9648C134.626 35.5396 135.771 35.8232 137.038 35.8232C138.002 35.808 138.899 35.6417 139.731 35.324C140.559 34.9912 141.262 34.5488 141.833 33.9891C142.423 33.4295 142.835 32.798 143.077 32.0908H149.547C149.154 33.8265 148.371 35.3694 147.195 36.7269C146.019 38.0694 144.541 39.1169 142.763 39.8694C140.982 40.6257 139.035 40.9963 136.925 40.9812ZM131.226 23.2496C130.863 23.8812 130.613 24.558 130.473 25.2841H143.315C143.221 24.3652 142.937 23.5295 142.465 22.7732C141.92 21.8845 141.183 21.1963 140.249 20.716C139.315 20.2169 138.26 19.9711 137.084 19.9711C135.832 19.9711 134.694 20.2585 133.669 20.8295C132.64 21.4005 131.827 22.2097 131.226 23.2496Z" fill="white"/>
<path d="M182.999 15.4672C182.999 13.4479 183.46 11.6517 184.379 10.0824C185.298 8.49791 186.587 7.26892 188.248 6.39539C189.923 5.50673 191.874 5.04539 194.105 5.01514V10.5097C193.065 10.5248 192.176 10.7441 191.435 11.1639C190.713 11.5723 190.153 12.166 189.76 12.9525C189.401 13.6748 189.204 14.5105 189.178 15.4635H193.969V20.6895H189.174V40.3912H182.999V20.6895H179.017V15.4635H182.999V15.4672Z" fill="white"/>
<path fill-rule="evenodd" clip-rule="evenodd" d="M218.416 40.936C215.898 40.936 213.644 40.3839 211.655 39.2835C209.681 38.1679 208.127 36.6289 206.996 34.67C205.881 32.6961 205.321 30.4574 205.321 27.9541C205.321 25.4356 205.881 23.1894 206.996 21.2154C208.127 19.2263 209.681 17.6797 211.655 16.5793C213.644 15.4789 215.898 14.9268 218.416 14.9268C220.95 14.9268 223.211 15.4789 225.2 16.5793C227.205 17.6797 228.766 19.2188 229.882 21.1927C230.997 23.1667 231.565 25.4205 231.58 27.9541C231.565 30.4574 230.997 32.6961 229.882 34.67C228.782 36.6289 227.227 38.1679 225.223 39.2835C223.219 40.3877 220.95 40.936 218.416 40.936ZM218.416 35.26C219.744 35.26 220.92 34.9574 221.945 34.3562C222.969 33.7398 223.76 32.8776 224.319 31.7772C224.879 30.6616 225.155 29.3873 225.155 27.9541C225.155 26.5058 224.875 25.2238 224.319 24.1083C223.76 22.9927 222.969 22.1343 221.945 21.5293C220.92 20.9129 219.744 20.6028 218.416 20.6028C217.104 20.6028 215.936 20.9129 214.911 21.5293C213.901 22.1343 213.115 22.9927 212.559 24.1083C211.999 25.2238 211.731 26.5058 211.746 27.9541C211.746 29.3873 212.026 30.6616 212.582 31.7772C213.156 32.8776 213.939 33.736 214.934 34.3562C215.943 34.9574 217.104 35.26 218.416 35.26Z" fill="white"/>
<path d="M238.254 15.4673H231.379L238.821 40.3912H244.838L249.731 24.4711L255.014 40.3912H260.939L268.404 15.4673H262.184L257.948 30.9828L253.271 15.4673H247.254L242.599 31.3232L238.254 15.4673Z" fill="white"/>
</g>
<defs>
<clipPath id="clip0_546_26709">
<rect width="268.487" height="45" fill="white" transform="translate(0 0.5)"/>
</clipPath>
</defs>
</svg>
