<svg width="41" height="40" viewBox="0 0 41 40" fill="none" xmlns="http://www.w3.org/2000/svg">
<g clip-path="url(#clip0_546_24485)">
<path d="M14.2688 13.1752C11.0375 17.0314 8.40626 21.3002 6.92501 25.1377L1.98126 22.6564L7.70626 13.5939C7.81251 13.4189 7.93126 13.2814 8.05001 13.1564C10.0813 11.1314 12.4688 12.0689 14.2688 13.1752Z" fill="#4FBEE6"/>
<path d="M40.5 0.6125C40.5 0.45 40.4375 0.29375 40.325 0.175C40.2062 0.0625 40.05 0 39.8875 0C39.3688 0.00625 26.9625 0.20625 17.2437 9.91875C16.5 10.6625 15.7687 11.4438 15.0687 12.2437C13.5 11.225 10.1 9.39375 7.1875 12.3C7.00625 12.4812 6.84375 12.6937 6.68125 12.9437L0.593749 22.575C0.499999 22.7188 0.481249 22.8937 0.518749 23.0688C0.568749 23.2313 0.681249 23.3687 0.831249 23.4437L6.50625 26.2938C6.46875 26.3937 6.43125 26.4937 6.4 26.5938C6.33125 26.8062 6.39375 27.0437 6.55 27.2062L6.80625 27.4562L4.175 28.7188C3.99375 28.8062 3.875 28.975 3.8375 29.1687C3.80625 29.3625 3.86875 29.5562 4.00625 29.6937L10.8062 36.4938C10.9125 36.6063 11.075 36.6687 11.2312 36.6687C11.2687 36.6687 11.3062 36.6625 11.3312 36.6562C11.525 36.625 11.6875 36.5 11.775 36.325L13.0437 33.6937L13.2937 33.95C13.4062 34.0625 13.5687 34.125 13.725 34.125C13.7875 34.125 13.8437 34.1187 13.9062 34.0938C14.0062 34.0625 14.1125 34.025 14.2125 33.9938L17.0562 39.675C17.1375 39.825 17.275 39.9438 17.4375 39.9813C17.4937 40 17.5437 40.0063 17.6 40.0063C17.7125 40.0063 17.825 39.975 17.9187 39.9062L27.5562 33.8125C27.8 33.6562 28.0063 33.4938 28.1938 33.3063C31.0938 30.4062 29.2688 27 28.25 25.4312C29.05 24.7312 29.8312 24 30.575 23.2562C40.2938 13.5375 40.4937 1.13125 40.5 0.6125ZM1.975 22.6625L7.7 13.6C7.80625 13.425 7.925 13.2875 8.04375 13.1625C10.075 11.1312 12.4625 12.0625 14.2625 13.175C11.0312 17.0312 8.4 21.3 6.91875 25.1375L1.975 22.6625ZM11.0562 35.025L5.475 29.4438L7.71875 28.3625L9.925 30.575L12.1375 32.7812L11.0562 35.025ZM27.3312 32.45C27.2125 32.5687 27.0625 32.6875 26.9 32.7938L17.8375 38.5187L15.35 33.575C19.1875 32.0875 23.4563 29.4563 27.3125 26.2313C28.4312 28.025 29.3625 30.4187 27.3312 32.45ZM13.8875 32.825L11.8125 30.75L8.26875 27.2062L7.675 26.6125C9.06875 22.4688 12.0062 17.6438 15.6687 13.4C15.675 13.3938 15.6812 13.3938 15.6812 13.3875C15.6812 13.3875 15.6812 13.3813 15.6875 13.3813C16.4625 12.4812 17.2687 11.6125 18.1 10.775C26.225 2.65 36.6 1.425 39.2562 1.24375C39.075 3.90625 37.85 14.275 29.725 22.4C24.95 27.1688 18.925 31.1313 13.8875 32.825Z" fill="#2B2F64"/>
<path d="M12.1375 32.7811L11.0563 35.0248L5.47501 29.4436L7.71876 28.3623L9.92501 30.5748L12.1375 32.7811Z" fill="#F26E62"/>
<path d="M11.0563 35.0249L5.47501 29.4437L6.26876 29.0562L11.4375 34.2249L11.0563 35.0249Z" fill="#E15F5A"/>
<path d="M27.3313 32.4502C27.2125 32.5689 27.0625 32.6877 26.9 32.7939L17.8375 38.5189L15.35 33.5752C19.1875 32.0877 23.4563 29.4564 27.3125 26.2314C28.4313 28.0252 29.3625 30.4189 27.3313 32.4502Z" fill="#4FBEE6"/>
<path d="M27.3313 32.4498C27.2125 32.5686 27.0625 32.6873 26.9 32.7998L17.8375 38.5248L15.35 33.5811C15.5 33.5248 15.6438 33.4623 15.7938 33.3998L17.8063 37.3998L26.15 32.1248C26.3063 32.0248 26.4375 31.9123 26.55 31.8061C28.2188 30.1373 27.7125 28.1936 26.85 26.6186C27.0063 26.4936 27.1625 26.3686 27.3188 26.2373C28.4313 28.0248 29.3625 30.4186 27.3313 32.4498Z" fill="#38A9DA"/>
<path d="M8.05001 13.1625C7.93126 13.2812 7.81251 13.4312 7.70001 13.5937L1.97501 22.6562L6.91876 25.1437C6.97501 24.9937 7.03751 24.85 7.10001 24.7L3.10001 22.6875L8.37501 14.3437C8.47501 14.1875 8.58751 14.0562 8.69376 13.9437C10.3625 12.275 12.3063 12.7812 13.8813 13.6437C14.0063 13.4875 14.1313 13.3312 14.2625 13.175C12.475 12.0687 10.0813 11.1312 8.05001 13.1625Z" fill="#38A9DA"/>
<path d="M18.1 10.7749C17.2687 11.6124 16.4625 12.4812 15.6875 13.3812C15.6812 13.3812 15.6812 13.3874 15.6812 13.3874C15.6812 13.3937 15.675 13.3937 15.6687 13.3999C12.0062 17.6437 9.06874 22.4687 7.67499 26.6124L8.26874 27.2061L11.8125 30.7499L13.8875 32.8249C18.925 31.1311 24.9562 27.1686 29.725 22.3999C37.85 14.2749 39.075 3.8999 39.2562 1.24365C36.5937 1.4249 26.225 2.6499 18.1 10.7749ZM29.8062 15.1749C28.6562 15.1749 27.5062 14.7374 26.6375 13.8624C24.8875 12.1187 24.8875 9.2749 26.6375 7.5249C28.3812 5.78115 31.225 5.78115 32.975 7.5249C34.7187 9.2749 34.7187 12.1187 32.975 13.8624C32.1 14.7374 30.95 15.1749 29.8062 15.1749Z" fill="#FFDC7D"/>
<path d="M39.2563 1.24365C36.5938 1.4249 26.225 2.65615 18.1 10.7812C17.275 11.6187 16.4625 12.4874 15.6813 13.3874L15.675 13.3937C15.675 13.3999 15.6688 13.3999 15.6625 13.4062C12 17.6499 9.06251 22.4749 7.66876 26.6187L13.8813 32.8312C18.9188 31.1374 24.9438 27.1749 29.7188 22.4062C37.8438 14.2749 39.075 3.8999 39.2563 1.24365ZM14.1563 31.6374L8.86251 26.3437C10.2563 22.5437 12.9375 18.1812 16.3063 14.2374L16.7063 13.7812C17.3813 13.0187 18.0938 12.2562 18.8375 11.5062C25.7375 4.59365 34.2875 2.83115 38.1188 2.38115C37.675 6.20615 35.9063 14.7562 28.9938 21.6686C24.5438 26.1187 18.9188 29.8874 14.1563 31.6374Z" fill="#EBC25D"/>
<path d="M32.975 7.51875C31.225 5.775 28.3813 5.775 26.6375 7.51875C24.8875 9.26875 24.8875 12.1125 26.6375 13.8562C27.5125 14.7375 28.6563 15.1687 29.8063 15.1687C30.95 15.1687 32.1 14.7312 32.975 13.8562C34.725 12.1125 34.725 9.275 32.975 7.51875ZM32.1188 13.0062C31.5 13.625 30.6813 13.9625 29.8125 13.9625C28.9313 13.9625 28.1125 13.625 27.5 13.0062C26.8813 12.3875 26.5438 11.5625 26.5438 10.6937C26.5438 9.81875 26.8813 9 27.5 8.3875C28.1188 7.76875 28.9375 7.43125 29.8125 7.43125C30.6875 7.43125 31.5063 7.76875 32.1188 8.3875C33.3938 9.65625 33.3938 11.7312 32.1188 13.0062Z" fill="#2B2F64"/>
<path d="M32.1188 13.0062C31.5 13.6249 30.6813 13.9624 29.8125 13.9624C28.9313 13.9624 28.1125 13.6249 27.5 13.0062C26.8813 12.3874 26.5438 11.5624 26.5438 10.6937C26.5438 9.81865 26.8813 8.9999 27.5 8.3874C28.1188 7.76865 28.9375 7.43115 29.8125 7.43115C30.6875 7.43115 31.5063 7.76865 32.1188 8.3874C33.3938 9.65615 33.3938 11.7312 32.1188 13.0062Z" fill="#EDEDEE"/>
<path d="M32.1187 8.38114C31.5 7.76239 30.6812 7.42489 29.8062 7.42489C28.925 7.41864 28.1125 7.76239 27.4937 8.38739C26.875 9.00614 26.5312 9.81864 26.5312 10.6936C26.5312 11.5686 26.875 12.3936 27.4937 13.0061C28.1125 13.6186 28.9312 13.9624 29.8062 13.9686C30.6812 13.9686 31.5 13.6311 32.1187 13.0124C33.3937 11.7311 33.4 9.65614 32.1187 8.38114ZM29.8062 12.9374C29.2062 12.9374 28.6437 12.6999 28.2187 12.2749C27.7937 11.8499 27.5625 11.2936 27.5562 10.6874C27.5625 10.0936 27.7937 9.53114 28.2187 9.11239C28.6437 8.68739 29.2062 8.44989 29.8062 8.44989C30.4062 8.44989 30.9625 8.68114 31.3875 9.10614C31.8187 9.53739 32.0437 10.0936 32.0437 10.6936C32.05 11.2874 31.8125 11.8499 31.3937 12.2686C30.9687 12.6999 30.4 12.9311 29.8062 12.9374Z" fill="#D7D6D6"/>
<path d="M2.8875 32.5624L0.81875 34.6312C0.58125 34.8687 0.58125 35.2499 0.81875 35.4874C0.9375 35.6062 1.09375 35.6624 1.25 35.6624C1.40625 35.6624 1.5625 35.6062 1.68125 35.4874L3.75 33.4187C3.9875 33.1812 3.9875 32.7999 3.75 32.5624C3.5125 32.3249 3.125 32.3249 2.8875 32.5624Z" fill="#2B2F64"/>
<path d="M2.7625 36.8749L0.69375 38.9437C0.45625 39.1812 0.45625 39.5624 0.69375 39.7999C0.8125 39.9187 0.96875 39.9749 1.125 39.9749C1.28125 39.9749 1.4375 39.9187 1.55625 39.7999L3.625 37.7312C3.8625 37.4937 3.8625 37.1124 3.625 36.8749C3.38125 36.6374 3 36.6374 2.7625 36.8749Z" fill="#2B2F64"/>
<path d="M7.075 36.7499L5.00625 38.8187C4.76875 39.0562 4.76875 39.4374 5.00625 39.6749C5.125 39.7937 5.28125 39.8499 5.4375 39.8499C5.59375 39.8499 5.75 39.7937 5.86875 39.6749L7.9375 37.6062C8.175 37.3687 8.175 36.9874 7.9375 36.7499C7.7 36.5124 7.3125 36.5124 7.075 36.7499Z" fill="#2B2F64"/>
</g>
<defs>
<clipPath id="clip0_546_24485">
<rect width="40" height="40" fill="white" transform="translate(0.5)"/>
</clipPath>
</defs>
</svg>
